<?xml version="1.0" encoding="UTF-8" standalone="no"?>
<!-- Created with Inkscape (http://www.inkscape.org/) -->

<svg
   width="42.584782mm"
   height="48.153957mm"
   viewBox="0 0 42.584782 48.153957"
   version="1.1"
   id="svg1"
   xml:space="preserve"
   xmlns:inkscape="http://www.inkscape.org/namespaces/inkscape"
   xmlns:sodipodi="http://sodipodi.sourceforge.net/DTD/sodipodi-0.dtd"
   xmlns="http://www.w3.org/2000/svg"
   xmlns:svg="http://www.w3.org/2000/svg"><sodipodi:namedview
     id="namedview1"
     pagecolor="#ffffff"
     bordercolor="#000000"
     borderopacity="0.25"
     inkscape:showpageshadow="2"
     inkscape:pageopacity="0.0"
     inkscape:pagecheckerboard="0"
     inkscape:deskcolor="#d1d1d1"
     inkscape:document-units="mm" /><defs
     id="defs1" /><g
     inkscape:label="Layer 1"
     inkscape:groupmode="layer"
     id="layer1"
     transform="translate(-23.558728,-141.85696)"><path
       style="fill:#000000"
       d="m 43.915149,188.54511 v -1.46636 l -1.1733,0.6876 -1.17329,0.68759 -0.281913,-0.52676 c -0.45517,-0.85049 -0.356275,-1.00933 1.173293,-1.88446 l 1.45521,-0.83258 v -0.77434 c 0,-0.42588 -0.0532,-0.77433 -0.11812,-0.77433 -0.065,0 -0.84778,0.42765 -1.7396,0.95033 -0.891816,0.52268 -1.662424,0.90939 -1.712459,0.85935 -0.05004,-0.05 -0.169163,-0.4025 -0.264727,-0.78326 l -0.173753,-0.69229 2.001089,-1.15925 2.00108,-1.15925 0.003,-2.86199 0.003,-2.86198 -1.16718,0.95642 c -1.254455,1.02792 -1.249595,1.02921 -1.729011,-0.45798 -0.175915,-0.5457 -0.417915,-0.99218 -0.537776,-0.99218 -0.119861,0 -0.463272,0.41582 -0.763135,0.92405 l -0.545205,0.92405 0.782347,2.18481 c 0.922382,2.57586 0.910367,2.47572 0.32194,2.68327 -0.254661,0.0898 -0.590979,0.22574 -0.747372,0.30204 -0.163829,0.0799 -0.500236,-0.53695 -0.793697,-1.45538 -0.280141,-0.87675 -0.572996,-1.59409 -0.65079,-1.59409 -0.07779,0 -0.352704,0.35763 -0.610909,0.79474 l -0.469465,0.79474 -0.498887,-0.267 c -0.773031,-0.41371 -0.851716,-0.72223 -0.371223,-1.45556 0.244041,-0.37245 0.394474,-0.72642 0.334297,-0.7866 -0.06018,-0.0602 -0.582322,2.3e-4 -1.160319,0.13424 -0.577998,0.134 -1.318796,0.24649 -1.646218,0.24996 l -0.595313,0.006 v -0.76984 -0.76985 l 1.91823,-0.30814 c 1.055026,-0.16948 2.117942,-0.36411 2.362037,-0.43251 0.413469,-0.11587 1.540567,-1.72149 1.540567,-2.19463 0,-0.11626 -0.598708,-0.093 -1.330462,0.0517 -0.731754,0.14468 -1.390643,0.20288 -1.464197,0.12933 -0.07355,-0.0736 -0.0066,-0.70112 0.148825,-1.39458 0.155409,-0.69346 0.24875,-1.29256 0.207426,-1.33132 -0.04132,-0.0388 -1.146696,0.54888 -2.456384,1.30586 l -2.38125,1.37633 -0.0757,2.40479 -0.07569,2.40479 -0.7842,0.1151 -0.7842,0.11509 v -2.07694 -2.07694 l -0.649891,0.42582 -0.64989,0.42583 -0.07771,1.76309 -0.07771,1.76308 -0.727604,0.0837 -0.727604,0.0837 v -1.2082 -1.2082 l -0.330729,9.9e-4 c -0.181901,5.5e-4 -0.72056,0.23867 -1.19702,0.52917 -1.107372,0.67516 -1.235401,0.66497 -1.596294,-0.1271 l -0.298565,-0.65528 1.211881,-0.71021 1.211881,-0.71021 -0.625056,-0.48222 c -0.343781,-0.26523 -0.833416,-0.55175 -1.088077,-0.63672 -0.580253,-0.19361 -0.585226,-0.49922 -0.01889,-1.16066 l 0.444135,-0.51871 1.606386,0.89793 1.606387,0.89794 0.59833,-0.45181 0.59833,-0.45181 -1.656663,-0.89805 c -0.911165,-0.49392 -1.705543,-0.93814 -1.765285,-0.98715 -0.176395,-0.1447 0.825507,-1.15068 1.146015,-1.15068 0.161656,0 1.11141,0.47771 2.110564,1.06159 l 1.816643,1.06158 1.751033,-0.99345 c 0.963068,-0.5464 2.081804,-1.15967 2.486081,-1.36282 0.404277,-0.20316 0.691245,-0.41317 0.637708,-0.46671 -0.05354,-0.0535 -0.708563,-0.3051 -1.455614,-0.55903 l -1.358274,-0.4617 0.944134,-1.19025 0.944134,-1.19025 -1.080069,-0.0812 c -1.36304,-0.10247 -1.516272,-0.006 -3.170619,1.99212 l -1.362966,1.64635 -0.657887,-0.29976 c -0.361838,-0.16486 -0.657887,-0.39936 -0.657887,-0.5211 0,-0.12175 0.416719,-0.68261 0.926042,-1.24637 0.509322,-0.56376 0.926041,-1.15942 0.926041,-1.32368 0,-0.16494 -0.414627,-0.29866 -0.926041,-0.29866 h -0.926042 v -0.79375 -0.79375 h 1.074083 1.074082 l -1.136056,-1.3473 -1.136057,-1.34729 0.519877,-0.38015 c 0.285933,-0.20908 0.653717,-0.34693 0.817299,-0.30635 0.163582,0.0406 0.914366,0.81794 1.668409,1.72744 l 1.370988,1.65365 h 1.345143 1.345143 l -0.954778,-1.16518 -0.954778,-1.16518 1.319781,-0.47459 c 0.725879,-0.26102 1.316854,-0.54036 1.313278,-0.62076 -0.01029,-0.23125 -4.230162,-2.65971 -4.621717,-2.65971 -0.193809,0 -1.200859,0.48918 -2.237888,1.08708 l -1.885508,1.08707 -0.518984,-0.59839 c -0.285441,-0.32912 -0.518984,-0.63165 -0.518984,-0.67229 0,-0.0406 0.714375,-0.46663 1.5875,-0.94663 0.873125,-0.48 1.5875,-0.96687 1.5875,-1.08192 0,-0.11505 -0.278783,-0.3362 -0.619518,-0.49145 l -0.619518,-0.28227 -1.376902,0.84721 -1.376903,0.84722 -0.517121,-0.46799 c -0.721116,-0.6526 -0.662334,-0.81641 0.539175,-1.50255 0.580962,-0.33177 1.057212,-0.66879 1.058333,-0.74893 0.0011,-0.0801 -0.533744,-0.40602 -1.188587,-0.72417 -1.316593,-0.63965 -1.368569,-0.7427 -0.790704,-1.56771 l 0.399921,-0.57097 1.121433,0.6412 c 0.616788,0.35266 1.21073,0.64263 1.31987,0.64439 0.109141,0.002 0.198438,-0.60602 0.198438,-1.35059 v -1.35378 l 0.595312,0.15954 c 0.327422,0.0877 0.68461,0.16116 0.79375,0.16315 0.109141,0.002 0.198438,0.81794 0.198438,1.81323 v 1.80961 l 0.661458,0.30138 0.661459,0.30138 v -2.00738 -2.00739 l 0.727061,0.18248 c 0.399884,0.10037 0.771765,0.22719 0.826403,0.28182 0.05464,0.0546 0.13383,1.12602 0.175985,2.38085 0.04215,1.25483 0.116757,2.31821 0.165785,2.36306 0.319155,0.29201 4.554031,2.511 4.635905,2.42913 0.05578,-0.0558 -0.02573,-0.6688 -0.18114,-1.36226 -0.155408,-0.69347 -0.248656,-1.29475 -0.207218,-1.33619 0.04144,-0.0414 0.660546,0.034 1.375795,0.16761 0.715248,0.13362 1.349738,0.19366 1.409977,0.13342 0.06024,-0.0602 -0.163917,-0.58464 -0.498123,-1.16533 l -0.607649,-1.05582 -2.257745,-0.35654 -2.257745,-0.35654 -0.08541,-0.8931 -0.08541,-0.89309 0.614575,0.15316 c 1.277139,0.31827 2.863535,0.504 2.863535,0.33526 0,-0.0965 -0.201745,-0.48332 -0.448322,-0.85965 l -0.448322,-0.68422 0.498891,-0.3648 c 0.75234,-0.55013 1.093406,-0.44664 1.462183,0.44367 0.401724,0.96985 0.582186,0.81497 1.173269,-1.00691 0.464402,-1.43141 0.765756,-1.63401 1.563188,-1.05091 l 0.462443,0.33814 -0.807777,2.19081 -0.807777,2.19081 0.594341,1.04088 c 0.326887,0.57249 0.668164,1.0418 0.758393,1.04292 0.09023,0.001 0.314061,-0.53374 0.497406,-1.18858 0.311696,-1.11327 0.823846,-1.51951 1.183016,-0.93837 0.0857,0.13875 0.50949,0.50404 0.94165,0.81177 l 0.78575,0.5595 v -2.76598 -2.76599 l -1.91823,-1.12787 c -1.055024,-0.62033 -1.953788,-1.15564 -1.99725,-1.18956 -0.203709,-0.15902 0.304506,-1.44697 0.570726,-1.44637 0.166126,3.8e-4 0.986654,0.4135 1.823404,0.91806 l 1.52135,0.91738 -9.2e-4,-0.85191 -9.3e-4,-0.85192 -1.45428,-0.78446 c -1.432496,-0.77272 -1.694557,-1.21168 -1.190215,-1.99366 l 0.255968,-0.39688 1.049167,0.59532 c 0.57705,0.32742 1.11488,0.59531 1.19519,0.59531 0.0803,0 0.14602,-0.65484 0.14602,-1.45521 v -1.45521 h 0.79375 0.79375 v 1.45521 c 0,0.80037 0.0788,1.45521 0.17519,1.45521 0.0964,0 0.66874,-0.28924 1.27197,-0.64275 l 1.09678,-0.64276 0.29306,0.7764 0.29306,0.7764 -1.49889,0.87391 -1.49888,0.87391 -0.0837,0.71224 -0.0837,0.71223 0.34831,-0.006 c 0.19156,-0.003 1.00047,-0.41196 1.79757,-0.90816 l 1.44927,-0.90218 0.29985,0.70972 c 0.16492,0.39035 0.25583,0.78936 0.20202,0.8867 -0.0538,0.0973 -0.90044,0.62287 -1.88141,1.16785 -0.98097,0.54498 -1.87106,1.12018 -1.97797,1.27823 -0.23476,0.34704 -0.27125,5.44673 -0.039,5.44673 0.0899,0 0.57032,-0.35719 1.06754,-0.79375 0.49722,-0.43656 1.00938,-0.79375 1.13814,-0.79375 0.12877,0 0.43534,0.60583 0.68128,1.34628 l 0.44716,1.34628 0.62418,-1.01555 c 0.7961,-1.29528 0.79175,-1.41717 -0.13553,-3.79368 l -0.77427,-1.98437 0.67213,-0.35447 c 0.81685,-0.43078 0.95194,-0.29814 1.53934,1.51139 l 0.46143,1.42151 0.52311,-0.8262 c 0.58935,-0.9308 0.58143,-0.92739 1.28229,-0.5523 0.62414,0.33403 0.65507,0.86793 0.0834,1.4396 -0.65194,0.65195 -0.26435,0.77366 1.39956,0.4395 1.65654,-0.33268 2.03332,-0.17664 1.89549,0.78504 l -0.0885,0.6178 -2.31574,0.4049 -2.31573,0.4049 -0.66083,0.97815 c -0.36345,0.53798 -0.66083,1.04939 -0.66083,1.13646 0,0.15208 1.45949,-0.0314 2.46954,-0.31049 l 0.48517,-0.13405 -0.18959,1.51741 c -0.10772,0.86214 -0.0887,1.45946 0.044,1.38322 0.12848,-0.0738 1.21586,-0.69634 2.4164,-1.38342 l 2.18282,-1.24922 v -2.32724 -2.32723 l 0.59531,-0.15954 c 0.32742,-0.0877 0.68461,-0.16116 0.79375,-0.16315 0.10914,-0.002 0.19844,0.89241 0.19844,1.98756 v 1.99117 l 0.74761,-0.38661 0.74762,-0.38661 -0.02,-1.73686 c -0.0114,-0.99267 0.0934,-1.73841 0.24457,-1.74047 0.14552,-0.002 0.53247,-0.0754 0.85989,-0.16314 l 0.59532,-0.15954 v 1.35378 c 0,0.74457 0.0914,1.35377 0.20316,1.35377 0.11174,0 0.64121,-0.29765 1.17659,-0.66145 0.53538,-0.36381 1.03621,-0.66146 1.11296,-0.66146 0.0767,0 0.31257,0.33461 0.52406,0.74359 l 0.38452,0.74358 -1.17148,0.63995 c -0.64431,0.35197 -1.17148,0.72931 -1.17148,0.83854 0,0.10922 0.48738,0.44722 1.08306,0.75112 l 1.08306,0.55253 -0.48493,0.57732 c -0.26671,0.31753 -0.51054,0.62152 -0.54185,0.67552 -0.0313,0.054 -0.73455,-0.28423 -1.56278,-0.75165 l -1.50585,-0.84985 -0.61383,0.32851 c -0.77813,0.41645 -0.68607,0.5475 1.08792,1.54868 0.80036,0.4517 1.4552,0.92086 1.4552,1.04258 0,0.12172 -0.22926,0.42879 -0.50946,0.68237 l -0.50947,0.46106 -1.8518,-1.08151 c -1.01849,-0.59483 -1.97843,-1.08151 -2.13319,-1.08151 -0.15476,0 -1.31283,0.59142 -2.57348,1.31427 l -2.29211,1.31427 0.63528,0.24808 c 0.3494,0.13645 0.97563,0.38044 1.39163,0.5422 l 0.75637,0.29412 -0.34626,0.45863 c -0.19044,0.25225 -0.64237,0.78606 -1.0043,1.18624 l -0.65805,0.72761 1.43857,-0.0156 1.43856,-0.0156 1.41848,-1.70419 c 1.47686,-1.77432 1.72696,-1.91095 2.46751,-1.34803 l 0.4464,0.33934 -1.03043,1.1736 c -0.56674,0.64549 -1.03551,1.26291 -1.04172,1.37205 -0.006,0.10914 0.40544,0.19844 0.91476,0.19844 h 0.92604 v 0.79375 0.79375 h -0.92604 c -0.50932,0 -0.92604,0.0728 -0.92604,0.16172 0,0.0889 0.47601,0.73025 1.05779,1.42513 l 1.05779,1.26341 -0.6516,0.42695 c -0.35839,0.23483 -0.69159,0.42695 -0.74044,0.42695 -0.0489,0 -0.77448,-0.83343 -1.61249,-1.85208 l -1.52365,-1.85208 h -1.17495 c -0.64721,0 -1.17495,0.12528 -1.17495,0.27893 0,0.15341 0.35664,0.65943 0.79253,1.12448 0.85944,0.91695 0.97895,1.23856 0.46424,1.24936 -0.1819,0.004 -0.79788,0.21677 -1.36885,0.47324 l -1.03812,0.46631 2.44612,1.39079 2.44612,1.39079 1.85639,-1.07028 c 1.02101,-0.58866 1.99588,-1.07029 2.16638,-1.07029 0.29587,0 1.09486,1.02959 0.91863,1.18377 -0.0465,0.0406 -0.78602,0.46669 -1.64345,0.94676 l -1.55896,0.87285 0.59179,0.4792 0.59178,0.47921 1.55222,-0.85642 1.55221,-0.85641 0.56948,0.56655 0.56948,0.56656 -1.23657,0.72468 -1.23658,0.72468 1.34072,0.76572 1.34071,0.76571 -0.42919,0.65503 c -0.23605,0.36026 -0.48359,0.65503 -0.55008,0.65503 -0.0665,0 -0.64811,-0.30897 -1.29249,-0.6866 l -1.17159,-0.6866 v 1.36563 1.36563 l -0.72761,-0.0837 -0.7276,-0.0837 -0.0771,-1.73535 -0.0771,-1.73535 -0.78282,-0.46242 -0.78281,-0.46242 v 1.99933 1.99934 h -0.79375 -0.79375 l -0.004,-2.4474 -0.004,-2.44739 -2.40921,-1.39705 -2.40921,-1.39705 0.18339,1.46781 0.18339,1.46781 -1.48833,-0.17492 -1.48833,-0.17493 0.59048,1.03021 c 0.32476,0.56661 0.61117,1.06248 0.63646,1.10194 0.0253,0.0395 1.01912,0.24283 2.20851,0.45195 2.56342,0.45069 2.67698,0.50771 2.67698,1.34401 v 0.64584 l -0.59531,-0.0115 c -0.32742,-0.006 -1.09807,-0.10882 -1.71255,-0.22773 -0.61448,-0.11892 -1.16927,-0.16418 -1.23287,-0.10057 -0.0636,0.0636 0.0814,0.459 0.32228,0.87867 l 0.43793,0.76304 -0.52797,0.39897 c -0.73636,0.55645 -0.85625,0.52217 -1.32172,-0.37794 -0.22575,-0.43657 -0.45242,-0.79375 -0.5037,-0.79375 -0.0513,0 -0.359,0.71064 -0.68382,1.57921 l -0.59059,1.57922 -0.75252,-0.38915 -0.75253,-0.38914 0.68602,-1.78539 c 0.97175,-2.529 0.99012,-2.75462 0.31727,-3.89502 l -0.60231,-1.02084 -0.45752,1.03607 c -0.25163,0.56985 -0.46634,1.18491 -0.47713,1.36681 -0.0304,0.51203 -0.34323,0.39695 -1.26205,-0.46425 -0.46505,-0.43589 -0.97523,-0.79252 -1.13373,-0.79252 h -0.28819 l 0.0754,2.69032 0.0754,2.69033 2.01683,1.20329 2.01684,1.20329 -0.25678,0.73659 c -0.14123,0.40513 -0.29828,0.73659 -0.34901,0.73659 -0.0507,0 -0.80326,-0.41671 -1.67228,-0.92604 -0.86903,-0.50932 -1.64932,-0.92604 -1.73397,-0.92604 -0.0847,0 -0.15392,0.33487 -0.15392,0.74416 v 0.74416 l 1.56154,0.87833 1.56154,0.87833 -0.26451,0.75876 c -0.31373,0.89998 -0.37579,0.91013 -1.40336,0.22959 -0.43656,-0.28912 -0.94258,-0.52646 -1.12448,-0.52742 l -0.33073,-0.002 v 1.32291 1.32292 h -0.79375 -0.79375 z m -0.0187,-16.92218 0.0106,-2.38125 -0.26816,0.39687 c -0.14749,0.21829 -0.68235,1.12431 -1.18859,2.0134 l -0.92042,1.61652 0.40777,0.97593 0.40777,0.97594 0.77023,-0.60808 0.77022,-0.60808 z m 3.97551,1.76595 c 0.007,-0.19289 -0.49408,-1.20492 -1.11255,-2.24896 l -1.12448,-1.89824 -0.0808,2.24896 -0.0808,2.24896 0.87454,0.73788 0.87454,0.73788 0.3188,-0.73788 c 0.17534,-0.40584 0.32416,-0.8957 0.33073,-1.0886 z m -8.027232,-0.97237 c 0.320011,-0.0957 2.559242,-3.83629 2.296502,-3.83629 -0.11747,0 -3.307482,1.69406 -3.704078,1.96705 -0.02972,0.0205 -0.135245,0.54508 -0.234507,1.16583 l -0.180477,1.12864 0.763674,-0.16848 c 0.420021,-0.0927 0.896519,-0.2082 1.058886,-0.25675 z m 11.546162,-0.71351 -0.12206,-0.97827 -1.84501,-1.0961 c -1.01476,-0.60286 -1.90616,-1.03495 -1.9809,-0.96022 -0.0747,0.0747 0.36073,0.97183 0.96771,1.99353 l 1.10361,1.85764 0.97076,0.0808 c 0.53392,0.0445 0.98363,0.0808 0.99936,0.0808 0.0157,0 -0.0263,-0.44022 -0.0935,-0.97826 z M 39.44381,168.1172 c 1.002076,-0.5457 1.822753,-1.08148 1.823727,-1.19063 9.73e-4,-0.10914 -0.928455,-0.19843 -2.065396,-0.19843 h -2.067165 l -0.757817,0.79099 c -0.82623,0.8624 -0.82076,0.9133 0.139338,1.29654 0.951307,0.37974 0.944324,0.38141 2.927313,-0.69847 z m 13.795089,0.64952 0.7248,-0.31879 -0.67783,-0.8599 -0.67783,-0.85989 h -2.2827 -2.2827 l 0.2973,0.2973 c 0.49438,0.49438 3.35244,2.04912 3.77728,2.05479 0.21829,0.003 0.72304,-0.13817 1.12168,-0.31351 z m -11.992941,-3.73763 c -0.06135,-0.0614 -0.920404,-0.58421 -1.90901,-1.16192 l -1.797467,-1.05038 -0.913212,0.28028 c -1.067627,0.32766 -1.092885,0.42087 -0.364842,1.34643 l 0.54837,0.69714 h 2.273852 c 1.250619,0 2.223657,-0.0502 2.162309,-0.11155 z m 12.151291,-0.70063 0.61857,-0.78289 -0.96533,-0.40334 -0.96532,-0.40334 -1.50533,0.84905 c -0.82793,0.46697 -1.74018,1.00736 -2.02722,1.20087 l -0.52189,0.35183 2.37398,-0.0146 2.37397,-0.0146 z m -11.984484,-2.52169 c -0.50816,-0.85851 -1.016212,-1.70336 -1.129005,-1.87746 -0.112793,-0.17409 -0.651563,-0.3957 -1.197266,-0.49247 l -0.992187,-0.17593 0.0186,0.62476 c 0.03455,1.16072 0.38764,1.57034 2.237785,2.59607 1.014563,0.56247 1.876461,0.99192 1.915331,0.95432 0.0389,-0.0376 -0.34509,-0.77078 -0.853254,-1.62929 z m 9.269274,-0.28699 c 0.324,-0.2641 0.66046,-0.88237 0.74771,-1.37392 l 0.15861,-0.89374 -1.12463,0.17856 c -0.61855,0.0982 -1.15963,0.27796 -1.2024,0.39944 -0.0428,0.12148 -0.48925,0.90422 -0.99219,1.73942 -0.50293,0.8352 -0.91442,1.62559 -0.91442,1.75642 0,0.25895 2.37638,-1.03103 3.32732,-1.80618 z m -7.40533,-3.96795 c -0.88481,-0.82044 -1.0744,-0.77772 -1.41063,0.31784 l -0.28577,0.93111 1.10127,1.90484 1.10127,1.90485 0.0776,-2.22268 0.0776,-2.22269 z m 3.64527,3.08872 1.00152,-1.85425 -0.30491,-0.92387 c -0.1677,-0.50813 -0.36002,-0.92388 -0.42739,-0.92388 -0.0674,0 -0.47485,0.26052 -0.90552,0.57893 l -0.78304,0.57892 v 2.1992 c 0,1.20956 0.094,2.1992 0.20891,2.1992 0.11489,0 0.65959,-0.83441 1.21043,-1.85425 z"
       id="path6" /></g></svg>
