<?xml version="1.0" encoding="UTF-8" standalone="no"?>
<!-- Created with Inkscape (http://www.inkscape.org/) -->

<svg
   width="42.862427mm"
   height="48.18351mm"
   viewBox="0 0 42.862427 48.18351"
   version="1.1"
   id="svg1"
   xml:space="preserve"
   sodipodi:docname="Snowflake1.svg"
   xmlns:inkscape="http://www.inkscape.org/namespaces/inkscape"
   xmlns:sodipodi="http://sodipodi.sourceforge.net/DTD/sodipodi-0.dtd"
   xmlns="http://www.w3.org/2000/svg"
   xmlns:svg="http://www.w3.org/2000/svg"><sodipodi:namedview
     id="namedview1"
     pagecolor="#ffffff"
     bordercolor="#000000"
     borderopacity="0.25"
     inkscape:showpageshadow="2"
     inkscape:pageopacity="0.0"
     inkscape:pagecheckerboard="0"
     inkscape:deskcolor="#d1d1d1"
     inkscape:document-units="mm" /><defs
     id="defs1" /><g
     inkscape:label="Layer 1"
     inkscape:groupmode="layer"
     id="layer1"
     transform="translate(-20.382727,-81.288442)"><path
       style="fill:#000000"
       d="m 40.491059,127.09088 c 0,-1.30969 -0.0654,-2.38125 -0.14543,-2.38125 -0.08,0 -0.50777,0.18737 -0.95063,0.41638 -0.44286,0.22901 -0.83299,0.37784 -0.86695,0.33073 -0.034,-0.0471 -0.32375,-0.52158 -0.64396,-1.05439 l -0.58219,-0.96872 1.59458,-0.96866 1.59458,-0.96866 v -1.31937 c 0,-0.72566 -0.0893,-1.26991 -0.19844,-1.20944 -0.10914,0.0605 -1.07085,0.6139 -2.13713,1.22986 -1.06629,0.61597 -1.96835,1.07954 -2.00458,1.03016 -0.40462,-0.55141 -1.25408,-2.11987 -1.18013,-2.17902 0.30841,-0.24667 4.67204,-2.72812 5.05726,-2.8759 l 0.46302,-0.17762 -6.8e-4,-2.72028 -6.8e-4,-2.72028 -0.95325,1.5875 c -0.52428,0.87312 -0.98898,1.62586 -1.03265,1.67274 -0.0437,0.0469 -0.5759,-0.22818 -1.18273,-0.61125 l -1.10332,-0.69649 0.3668,-0.57938 c 1.14176,-1.80344 1.50206,-2.49876 1.36557,-2.63525 -0.16833,-0.16832 -4.089575,2.12129 -4.400319,2.56935 -0.106913,0.15415 -0.19621,1.67926 -0.198438,3.38913 l -0.0041,3.10885 h -1.190625 -1.190625 v -2.36563 c 0,-1.3011 -0.114405,-2.43634 -0.254233,-2.52276 -0.139827,-0.0864 -0.670586,0.11491 -1.179463,0.44741 l -0.925231,0.60453 -0.07731,1.85208 -0.07731,1.85208 h -1.190571 -1.190625 l -0.132292,-1.09591 -0.132291,-1.09591 -1.977857,1.16206 c -1.087821,0.63913 -2.067667,1.16205 -2.177435,1.16205 -0.184061,0 -1.268666,-1.91366 -1.268666,-2.23841 0,-0.0786 0.103304,-0.14284 0.229565,-0.14284 0.126261,0 1.081927,-0.49348 2.123703,-1.09662 l 1.894136,-1.09662 -0.866931,-0.52141 c -0.476813,-0.28677 -0.910279,-0.56093 -0.963258,-0.60925 -0.178562,-0.16284 1.062729,-1.96776 1.353283,-1.96776 0.158266,0 0.912652,0.35267 1.676413,0.78371 l 1.388657,0.78371 1.07795,-0.58528 c 0.592872,-0.32189 1.078932,-0.65087 1.080132,-0.73106 0.0012,-0.0802 -0.890786,-0.65386 -1.982192,-1.27482 -1.091407,-0.62097 -1.984375,-1.23316 -1.984375,-1.36044 0,-0.39262 1.099703,-2.11896 1.282673,-2.01357 0.09489,0.0547 1.36316,0.78441 2.818368,1.62166 l 2.645834,1.52229 1.058333,-0.58822 c 0.582083,-0.32353 1.63715,-0.90462 2.3446,-1.29133 l 1.28626,-0.70311 -2.01387,-0.0773 -2.013865,-0.0773 v -1.30066 -1.30066 l 2.042115,-0.0773 2.04211,-0.0773 -2.22486,-1.25677 c -1.223678,-0.69122 -2.350988,-1.25632 -2.505137,-1.25578 -0.154148,5.4e-4 -0.661623,0.23351 -1.127721,0.51771 -1.62596,0.9914 -4.26142,2.39172 -4.501334,2.39172 -0.228307,0 -1.136079,-1.65263 -1.131264,-2.0595 0.0012,-0.1042 0.894202,-0.6647 1.984375,-1.24555 1.090173,-0.58085 1.982133,-1.134643 1.982133,-1.230643 0,-0.096 -0.446485,-0.43905 -0.992188,-0.76234 l -0.992187,-0.5878 -1.663673,0.86032 c -0.91502,0.47317 -1.697181,0.815223 -1.738135,0.760103 -0.04095,-0.0551 -0.332878,-0.551443 -0.648718,-1.102933 l -0.574255,-1.00271 0.93128,-0.54947 0.931281,-0.54947 -2.058473,-1.19569 c -1.132161,-0.65763 -2.093078,-1.22406 -2.135371,-1.25874 -0.06077,-0.0498 0.856729,-1.78438 1.16937,-2.2107 0.03895,-0.0531 0.985021,0.45289 2.102371,1.12448 1.117349,0.67158 2.075997,1.22105 2.130329,1.22105 0.05433,0 0.09878,-0.47625 0.09878,-1.05833 v -1.05833 h 1.322917 1.322917 v 1.93537 1.93537 l 0.935018,0.44588 c 0.51426,0.24523 1.050041,0.44588 1.190625,0.44588 0.145486,0 0.255607,-1.02589 0.255607,-2.38125 v -2.38125 h 1.322916 1.322917 v 3.30082 3.30083 l 2.044985,1.197093 c 1.12475,0.6584 2.14649,1.19709 2.27054,1.19709 0.20061,0 -0.18095,-0.72846 -1.34287,-2.563753 l -0.3668,-0.57938 1.10332,-0.69649 c 0.60683,-0.38307 1.13905,-0.65813 1.18273,-0.61125 0.0437,0.0469 0.49948,0.78556 1.0129,1.6415 l 0.9335,1.556253 0.091,-2.350003 c 0.0501,-1.2925 0.0512,-2.48676 0.002,-2.65391 -0.0487,-0.16714 -1.32084,-1.03026 -2.82687,-1.91804 l -2.73823,-1.61413 0.57343,-1.05634 c 0.31539,-0.58099 0.6593,-1.05733 0.76425,-1.05853 0.10495,-10e-4 1.08471,0.5263 2.17723,1.17222 1.09253,0.64592 2.02917,1.0924 2.08143,0.99219 0.0523,-0.10022 0.11871,-0.68112 0.14766,-1.2909 l 0.0526,-1.10869 -1.59415,-0.87568 c -0.87678,-0.48163 -1.59556,-0.9807 -1.59729,-1.10905 -0.005,-0.34348 1.0662,-2.0156 1.29079,-2.0156 0.10584,0 0.42355,0.1748 0.70603,0.38846 0.28247,0.21365 0.66241,0.39224 0.84432,0.39687 l 0.33072,0.008 v -2.39575 -2.39575 l 1.25678,0.0806 1.25677,0.0806 -0.0553,2.3151 -0.0553,2.31511 0.31989,-0.008 c 0.17594,-0.005 0.55101,-0.18322 0.83348,-0.39687 0.28248,-0.21366 0.60019,-0.38846 0.70603,-0.38846 0.22463,0 1.29392,1.66988 1.29392,2.02068 0,0.13113 -0.71437,0.63115 -1.5875,1.11116 l -1.5875,0.87273 v 1.12862 c 0,0.62074 0.0726,1.20122 0.16136,1.28997 0.0888,0.0888 0.59477,-0.11207 1.12448,-0.44627 0.52972,-0.3342 1.46935,-0.86574 2.08807,-1.18121 l 1.12496,-0.57359 0.5277,0.86552 c 0.29024,0.47603 0.52815,0.9998 0.5287,1.16392 5.4e-4,0.16412 -1.24762,0.99756 -2.77368,1.85208 l -2.77467,1.55368 -0.003,2.57969 c -0.002,1.41883 0.0881,2.579683 0.20006,2.579683 0.11193,0 0.59578,-0.713553 1.07523,-1.585673 l 0.87173,-1.58567 1.03939,0.59349 c 0.57167,0.32641 1.04031,0.70208 1.04143,0.83482 0.003,0.32456 -1.34281,2.626313 -1.65695,2.834443 -0.1384,0.0917 -0.1465,0.22908 -0.0182,0.30838 0.12727,0.0787 1.21154,-0.45084 2.4095,-1.17667 l 2.17809,-1.319673 v -3.28818 -3.28818 h 1.32292 1.32292 v 2.53559 c 0,1.39457 0.0893,2.49279 0.19844,2.44049 0.10914,-0.0523 0.64492,-0.3224 1.19062,-0.60022 l 0.99219,-0.50512 v -1.94987 -1.94987 l 1.25677,0.0806 1.25677,0.0806 0.0821,0.99219 c 0.0452,0.5457 0.14341,0.99218 0.21832,0.99218 0.0749,0 0.93786,-0.47625 1.91765,-1.05833 0.97979,-0.58208 1.90526,-1.05833 2.05659,-1.05833 0.28375,0 1.31636,2.04219 1.12453,2.22397 -0.0592,0.056 -0.9108,0.54179 -1.89256,1.07941 -0.98176,0.53762 -1.83768,1.06271 -1.90205,1.16686 -0.0644,0.10414 0.28689,0.40688 0.78056,0.67274 l 0.89758,0.48338 -0.58304,1.02124 c -0.32067,0.56168 -0.68543,1.022163 -0.81058,1.023283 -0.12515,10e-4 -0.91048,-0.361963 -1.74517,-0.806853 l -1.51762,-0.80888 -0.96681,0.57043 c -0.53175,0.31374 -0.96681,0.66749 -0.96681,0.78611 0,0.11863 0.74414,0.639213 1.65364,1.156873 0.90951,0.51765 1.81967,1.05157 2.02259,1.18648 l 0.36894,0.2453 -0.61332,1.0191 c -0.33733,0.5605 -0.63611,1.05263 -0.66394,1.09361 -0.0278,0.041 -1.26702,-0.64363 -2.75374,-1.52135 -1.48672,-0.87773 -2.78978,-1.59587 -2.89569,-1.59587 -0.10591,0 -1.19375,0.56555 -2.41743,1.25677 l -2.22486,1.25677 2.04211,0.0773 2.04211,0.0773 v 1.30066 1.30066 l -2.03964,0.0773 -2.03965,0.0773 2.16586,1.25677 c 1.19122,0.69122 2.29428,1.25677 2.45123,1.25677 0.15695,0 1.39804,-0.65484 2.75798,-1.45521 1.35993,-0.80036 2.59171,-1.45521 2.73728,-1.45521 0.21855,0 1.37528,1.66229 1.37528,1.97636 0,0.0517 -0.89151,0.61046 -1.98113,1.24165 -1.08962,0.63119 -1.98259,1.22721 -1.98438,1.32448 -0.002,0.0973 0.43178,0.44571 0.96347,0.77432 l 0.9667,0.59745 1.4585,-0.77431 c 0.80217,-0.42588 1.54464,-0.80963 1.64993,-0.85278 0.21473,-0.088 1.30816,1.58021 1.30816,1.99582 0,0.14707 -0.35719,0.41535 -0.79375,0.59618 -0.43657,0.18083 -0.78972,0.40364 -0.78479,0.49512 0.005,0.0915 0.8979,0.68215 1.98438,1.31259 1.08647,0.63044 1.97541,1.19232 1.97541,1.24862 0,0.0563 -0.25185,0.58556 -0.55967,1.17612 l -0.55967,1.07375 -1.22627,-0.71577 c -0.67445,-0.39367 -1.58346,-0.93228 -2.02002,-1.1969 -1.102,-0.66798 -1.19062,-0.62517 -1.19062,0.57522 v 1.05833 h -1.19063 -1.19062 v -1.81692 -1.81692 l -1.05266,-0.69662 c -0.57897,-0.38314 -1.11475,-0.69662 -1.19063,-0.69662 -0.0759,0 -0.13796,1.1311 -0.13796,2.51354 v 2.51354 h -1.32292 -1.32292 v -3.293 -3.29301 l -2.18281,-1.295 c -1.20054,-0.71225 -2.227,-1.25988 -2.28101,-1.21695 -0.054,0.0429 0.27341,0.7365 0.7276,1.54129 0.4542,0.80478 0.82489,1.55434 0.82377,1.66569 -10e-4,0.11134 -0.47403,0.47197 -1.05091,0.80138 l -1.04887,0.59894 -0.78698,-1.39269 c -0.43284,-0.76598 -0.90543,-1.57128 -1.0502,-1.78956 l -0.26322,-0.39688 -0.006,2.77813 -0.006,2.77812 2.76641,1.5875 c 1.52152,0.87313 2.76756,1.69251 2.76896,1.82086 0.006,0.53051 -1.14294,2.03877 -1.46011,1.91706 -0.18764,-0.072 -1.1381,-0.61507 -2.11212,-1.20681 -0.97403,-0.59175 -1.81833,-1.0759 -1.87622,-1.0759 -0.0579,0 -0.10525,0.59291 -0.10525,1.31757 v 1.31756 l 1.38907,0.79647 c 0.76398,0.43806 1.49886,0.83425 1.63307,0.88044 0.31634,0.10886 -0.9138,2.3052 -1.28492,2.29413 -0.1551,-0.005 -0.51312,-0.18322 -0.7956,-0.39687 -0.28247,-0.21366 -0.60989,-0.38846 -0.7276,-0.38846 -0.11771,0 -0.21402,1.07156 -0.21402,2.38125 v 2.38125 h -1.32291 -1.32292 z"
       id="path1" /></g></svg>
