<?xml version="1.0" encoding="UTF-8" standalone="no"?>
<!-- Created with Inkscape (http://www.inkscape.org/) -->

<svg
   width="46.831219mm"
   height="48.154167mm"
   viewBox="0 0 46.831219 48.154167"
   version="1.1"
   id="svg1"
   xml:space="preserve"
   xmlns:inkscape="http://www.inkscape.org/namespaces/inkscape"
   xmlns:sodipodi="http://sodipodi.sourceforge.net/DTD/sodipodi-0.dtd"
   xmlns="http://www.w3.org/2000/svg"
   xmlns:svg="http://www.w3.org/2000/svg"><sodipodi:namedview
     id="namedview1"
     pagecolor="#ffffff"
     bordercolor="#000000"
     borderopacity="0.25"
     inkscape:showpageshadow="2"
     inkscape:pageopacity="0.0"
     inkscape:pagecheckerboard="0"
     inkscape:deskcolor="#d1d1d1"
     inkscape:document-units="mm" /><defs
     id="defs1" /><g
     inkscape:label="Layer 1"
     inkscape:groupmode="layer"
     id="layer1"
     transform="translate(-74.166284,-79.499624)"><path
       style="fill:#000000"
       d="m 96.390112,125.27254 c 0,-1.30969 -0.0553,-2.38125 -0.12293,-2.38125 -0.18259,0 -5.25988,2.92985 -5.55239,3.204 -0.53804,0.50429 -0.69803,0.17759 -0.62174,-1.2696 l 0.0794,-1.50519 3.04271,-1.77462 3.0427,-1.77463 0.08,-1.3504 0.08,-1.3504 h -0.30371 c -0.16704,0 -0.61975,0.217 -1.00602,0.48222 -0.38626,0.26522 -1.41667,0.87784 -2.2898,1.36138 -0.87312,0.48354 -1.85539,1.05414 -2.18281,1.26801 l -0.59531,0.38884 0.005,-1.55179 0.005,-1.55178 2.97205,-1.70268 c 1.63462,-0.93647 3.05951,-1.82944 3.16643,-1.98437 0.26461,-0.38348 0.25568,-4.58322 -0.0101,-4.74748 -0.11692,-0.0723 -0.60227,0.57744 -1.07855,1.44379 -0.75444,1.37232 -2.33163,2.8897 -3.00361,2.8897 -0.11174,0 -0.20316,-0.55566 -0.20316,-1.2348 v -1.2348 l 0.92104,-1.67562 c 0.50656,-0.92159 0.81435,-1.67562 0.68397,-1.67562 -0.13038,0 -1.1104,0.51563 -2.17781,1.14584 l -1.94074,1.14584 -0.073,3.6889 -0.073,3.6889 -1.19451,0.72151 c -0.65698,0.39683 -1.24919,0.72151 -1.31602,0.72151 -0.0668,0 -0.12151,-1.60734 -0.12151,-3.57187 0,-1.96453 -0.0621,-3.57188 -0.13796,-3.57188 -0.0759,0 -0.61166,0.31348 -1.19063,0.69662 l -1.05266,0.69662 v 3.66455 3.66455 l -1.32291,0.67037 -1.32292,0.67038 v -3.60148 -3.60147 l -1.25677,0.72142 c -0.69122,0.39679 -1.63236,0.94657 -2.0914,1.22173 l -0.83463,0.50031 -0.55443,-0.89709 c -0.30494,-0.4934 -0.55444,-1.02896 -0.55444,-1.19012 0,-0.16117 0.90323,-0.82177 2.00717,-1.46799 l 2.00717,-1.17495 -2.94048,-1.64667 c -1.61727,-0.90567 -2.99677,-1.73774 -3.06556,-1.84905 -0.0688,-0.11131 0.4122,-0.51724 1.06887,-0.90207 l 1.19394,-0.6997 2.70872,1.51399 c 1.48979,0.8327 2.9066,1.63459 3.14847,1.78197 l 0.43975,0.26798 1.21389,-0.64397 c 0.66764,-0.35419 1.20934,-0.70371 1.20377,-0.77672 -0.006,-0.073 -1.37218,-0.8976 -3.03691,-1.83242 l -3.02677,-1.69968 0.25726,-0.30997 c 0.14149,-0.17049 0.7257,-0.52122 1.29824,-0.7794 l 1.04099,-0.46942 3.05228,1.77244 3.05229,1.77245 1.74066,-0.94013 c 0.95736,-0.51707 2.00007,-1.12182 2.31712,-1.34389 l 0.57646,-0.40377 h -2.14853 -2.14853 l -1.09434,-0.62159 -1.09434,-0.6216 0.33973,-0.26934 c 0.93981,-0.7451 1.85793,-1.01332 3.9116,-1.14273 l 2.24896,-0.14171 -0.52917,-0.24141 c -0.29104,-0.13278 -1.33519,-0.69748 -2.32033,-1.25491 l -1.79116,-1.01349 -3.10363,1.8348 -3.10363,1.83481 -1.2565,-0.70277 c -0.69108,-0.38652 -1.25471,-0.7623 -1.25252,-0.83506 0.002,-0.0728 0.97148,-0.66807 2.15398,-1.32292 1.1825,-0.65484 2.56278,-1.43959 3.06729,-1.74389 l 0.9173,-0.55327 -1.20938,-0.70875 -1.20939,-0.70875 -2.32518,1.29676 c -1.27885,0.71321 -2.70994,1.51924 -3.18021,1.79118 l -0.85503,0.49443 -1.19549,-0.63208 c -0.65752,-0.34764 -1.19549,-0.70556 -1.19549,-0.79538 0,-0.0898 1.30412,-0.92709 2.89805,-1.8606 1.59392,-0.93351 2.84623,-1.78113 2.78289,-1.8836 -0.0633,-0.10247 -0.95051,-0.68259 -1.9715,-1.28916 l -1.85636,-1.10284 0.53404,-1.04681 c 0.29373,-0.57575 0.61077,-1.04682 0.70454,-1.04682 0.0938,0 1.03824,0.47625 2.09882,1.05834 1.06059,0.58208 1.99348,1.05833 2.0731,1.05833 0.0796,0 0.14475,-1.54781 0.14475,-3.43958 0,-1.89178 0.0788,-3.43959 0.17519,-3.43959 0.0964,0 0.69167,0.30268 1.32292,0.67261 l 1.14772,0.67261 0.002,3.62687 0.002,3.62687 1.04257,0.59531 c 0.57341,0.32742 1.10827,0.59532 1.18858,0.59532 0.0803,0 0.14602,-1.54782 0.14602,-3.43959 0,-1.89177 0.0893,-3.43991 0.19844,-3.44032 0.10914,-4e-4 0.70445,0.26729 1.32292,0.59486 l 1.12448,0.59559 0.006,3.70463 0.006,3.70462 2.17637,1.22562 c 1.197,0.6741 2.21111,1.19498 2.25357,1.15752 0.0425,-0.0375 -0.36806,-0.82711 -0.91227,-1.75479 l -0.98947,-1.68669 -0.0292,-1.25677 c -0.0171,-0.73443 0.0872,-1.25043 0.25081,-1.24152 0.73611,0.0401 2.1129,1.34109 3.06384,2.89517 l 1.05234,1.71979 1.4e-4,-2.71198 c 9e-5,-1.60628 -0.10622,-2.71198 -0.26076,-2.71198 -0.21597,0 -2.83237,-1.47151 -5.49377,-3.0898 l -0.59532,-0.36198 v -1.44911 c 0,-1.41051 0.15914,-1.69673 0.67469,-1.21352 0.2925,0.27414 5.3698,3.204 5.55238,3.204 0.0676,0 0.11957,-0.62508 0.11546,-1.38907 l -0.007,-1.38906 -3.10138,-1.74727 -3.10139,-1.74727 -0.0793,-1.49388 c -0.0436,-0.82163 -0.0291,-1.49387 0.0322,-1.49387 0.18786,0 5.32195,2.9346 5.59015,3.19528 0.55155,0.53608 0.67468,0.14609 0.67468,-2.13695 v -2.38125 h 1.32292 1.32292 v 2.38125 c 0,1.30969 0.0726,2.38125 0.16138,2.38125 0.0888,0 1.453718,-0.7739 3.033238,-1.71979 1.57952,-0.94589 2.94159,-1.71979 3.02682,-1.71979 0.0852,0 0.11926,0.66715 0.0756,1.48255 l -0.0794,1.48256 -3.0427,1.77463 -3.042708,1.77463 -0.08,1.37302 c -0.044,0.75517 0.0156,1.3728 0.1323,1.37252 0.11674,-2.8e-4 1.209418,-0.60024 2.428178,-1.33324 1.21875,-0.73301 2.55821,-1.50974 2.97656,-1.72608 l 0.76065,-0.39335 -0.002,1.52815 -0.002,1.52815 -3.17274,1.80396 -3.172728,1.80397 v 2.49551 c 0,1.37254 0.0893,2.49451 0.19843,2.49329 0.10914,-0.001 0.60236,-0.76275 1.096038,-1.69226 l 0.8976,-1.69003 0.99051,-0.5567 c 0.54478,-0.30618 1.06359,-0.5567 1.15292,-0.5567 0.0893,0 0.16241,0.57255 0.16241,1.27234 v 1.27233 l -0.93056,1.54536 c -0.51182,0.84995 -0.87481,1.60113 -0.80666,1.66928 0.0682,0.0682 1.05246,-0.41264 2.18734,-1.06843 l 2.06342,-1.19234 0.0449,-3.62862 0.0448,-3.62862 0.9333,-0.63419 c 0.51331,-0.3488 1.05867,-0.63419 1.21192,-0.63419 h 0.27862 v 3.29168 c 0,1.82939 0.11342,3.36177 0.25531,3.44947 0.14042,0.0868 0.73574,-0.16014 1.32292,-0.54872 l 1.0676,-0.7065 V 90.6021 86.95824 l 1.17159,-0.6866 c 0.64438,-0.37763 1.23969,-0.6866 1.32292,-0.6866 0.0832,0 0.15132,1.61705 0.15132,3.59345 v 3.59346 l 0.8599,-0.51592 c 0.47294,-0.28376 1.41318,-0.83338 2.08942,-1.22138 l 1.22952,-0.70546 0.55641,0.9003 c 0.30603,0.49517 0.55642,1.03102 0.55642,1.19079 0,0.15977 -0.9076,0.81653 -2.01689,1.45947 l -2.01688,1.16897 1.95074,1.12796 c 1.0729,0.62038 2.45675,1.41939 3.07522,1.77559 0.61846,0.3562 1.12448,0.69083 1.12448,0.74363 0,0.0528 -0.52767,0.40523 -1.1726,0.78319 l -1.1726,0.68718 -1.01021,-0.51643 c -0.55562,-0.28403 -1.93638,-1.0645 -3.06836,-1.73436 -1.13198,-0.66987 -2.14401,-1.21827 -2.24896,-1.21868 -0.28549,-10e-4 -2.44047,1.16979 -2.4353,1.3232 0.002,0.073 1.36533,0.89853 3.02859,1.83449 1.66327,0.93596 2.98067,1.7694 2.92756,1.85208 -0.0531,0.0827 -0.63213,0.44008 -1.28671,0.7942 l -1.19014,0.64387 -2.20491,-1.28938 c -1.2127,-0.70916 -2.62389,-1.52248 -3.13598,-1.80739 l -0.93107,-0.518 -2.23383,1.29581 -2.23383,1.29582 2.23886,0.13229 2.23886,0.13229 0.8599,0.46982 c 0.47294,0.25839 0.85989,0.56389 0.85989,0.67888 0,0.11499 -0.46269,0.46912 -1.02821,0.78695 l -1.02821,0.57789 h -1.89782 c -1.12155,0 -1.83474,0.10207 -1.7436,0.24954 0.0848,0.13724 1.03115,0.73361 2.10295,1.32526 l 1.94873,1.07572 3.12908,-1.83989 3.12909,-1.83989 1.25811,0.68475 c 0.69196,0.37661 1.20101,0.77713 1.13122,0.89005 -0.0698,0.11292 -0.92949,0.65368 -1.91046,1.20169 -0.98097,0.54802 -2.2976,1.32187 -2.92585,1.71967 l -1.14226,0.72329 1.20837,0.70815 1.20838,0.70815 2.44743,-1.41619 c 1.34608,-0.77891 2.78147,-1.58779 3.18974,-1.7975 l 0.74232,-0.3813 1.17591,0.64237 c 0.64675,0.3533 1.17128,0.70439 1.16562,0.78019 -0.006,0.0758 -1.31534,0.89798 -2.91041,1.82707 -1.59507,0.92909 -2.89537,1.76253 -2.88955,1.85208 0.0139,0.21455 3.32963,2.14721 3.68376,2.14721 0.15093,0 0.27441,0.0731 0.27441,0.16241 0,0.35306 -1.17019,2.21884 -1.39162,2.21884 -0.12971,0 -1.0513,-0.47625 -2.04796,-1.05834 -0.99667,-0.58208 -1.88064,-1.05833 -1.96439,-1.05833 -0.0838,0 -0.15228,1.60387 -0.15228,3.56415 v 3.56414 l -1.25677,-0.73798 -1.25677,-0.73798 -0.0731,-3.70653 -0.0731,-3.70654 -0.9852,-0.50179 c -0.54187,-0.27598 -1.0745,-0.54458 -1.18364,-0.59689 -0.10914,-0.0523 -0.19844,1.46264 -0.19844,3.36654 v 3.46163 h -0.27831 c -0.15307,0 -0.74747,-0.26789 -1.32088,-0.59531 l -1.04257,-0.59531 -0.004,-3.70417 -0.004,-3.70417 -1.75818,-0.92604 c -0.967,-0.50932 -1.92416,-1.08904 -2.12703,-1.28827 -0.77271,-0.75883 -0.62763,-0.004 0.28922,1.5058 l 0.95462,1.57148 v 1.3765 c 0,0.75708 -0.0893,1.33371 -0.19843,1.28141 -1.36477,-0.65404 -2.18282,-1.14116 -2.18282,-1.29982 0,-0.32805 -1.707388,-3.13633 -1.910218,-3.14188 -0.10474,-0.003 -0.14478,1.09611 -0.089,2.44218 0.12522,3.0205 0.10219,2.84427 0.37169,2.84427 0.2122,0 5.489608,2.98015 5.764898,3.25544 0.0711,0.0711 0.16247,0.78975 0.20316,1.5971 l 0.074,1.46792 -0.68591,-0.35531 c -0.37724,-0.19542 -1.73709,-0.96268 -3.02187,-1.70502 -1.28478,-0.74234 -2.429638,-1.34972 -2.544108,-1.34972 -0.19117,0 -0.16014,2.60718 0.0329,2.76716 0.0466,0.0386 1.394348,0.81742 2.995078,1.73076 1.60073,0.91334 2.94388,1.68755 2.98478,1.72047 0.2201,0.17716 0.35057,2.72887 0.146,2.85531 -0.13296,0.0822 -0.77272,-0.18101 -1.42168,-0.58486 -1.27257,-0.79191 -4.640608,-2.66761 -4.791788,-2.66861 -0.0508,-3.3e-4 -0.0541,1.07123 -0.007,2.38125 l 0.0849,2.38186 h -1.34169 -1.34169 z"
       id="path2" /></g></svg>
