<?xml version="1.0" encoding="UTF-8" standalone="no"?>
<!-- Created with Inkscape (http://www.inkscape.org/) -->

<svg
   width="42.784126mm"
   height="48.28688mm"
   viewBox="0 0 42.784126 48.28688"
   version="1.1"
   id="svg1"
   xml:space="preserve"
   xmlns:inkscape="http://www.inkscape.org/namespaces/inkscape"
   xmlns:sodipodi="http://sodipodi.sourceforge.net/DTD/sodipodi-0.dtd"
   xmlns="http://www.w3.org/2000/svg"
   xmlns:svg="http://www.w3.org/2000/svg"><sodipodi:namedview
     id="namedview1"
     pagecolor="#ffffff"
     bordercolor="#000000"
     borderopacity="0.25"
     inkscape:showpageshadow="2"
     inkscape:pageopacity="0.0"
     inkscape:pagecheckerboard="0"
     inkscape:deskcolor="#d1d1d1"
     inkscape:document-units="mm" /><defs
     id="defs1" /><g
     inkscape:label="Layer 1"
     inkscape:groupmode="layer"
     id="layer1"
     transform="translate(-132.17974,-82.816221)"><path
       style="fill:#000000"
       d="m 153.48159,130.97039 -0.88663,-0.13229 -0.005,-2.45157 c -0.003,-1.34836 -0.0802,-2.49739 -0.1717,-2.5534 -0.0915,-0.056 -1.14869,0.47983 -2.34924,1.19076 l -2.18281,1.2926 0.003,-1.12044 0.003,-1.12045 2.38487,-1.41037 2.38488,-1.41038 -0.0514,-0.97087 c -0.0717,-1.35529 -0.16838,-1.44344 -0.97308,-0.88745 -0.38997,0.26944 -1.39364,0.87565 -2.23039,1.34713 l -1.52135,0.85723 v -1.1627 -1.1627 l 2.24896,-1.26236 c 1.23692,-0.6943 2.25838,-1.40021 2.2699,-1.56869 0.21132,-3.09059 0.22159,-4.1252 0.0421,-4.23616 -0.11918,-0.0737 -0.77742,0.2151 -1.46276,0.64167 l -1.24608,0.77558 v 1.14767 1.14767 l -0.7276,0.3647 c -0.40019,0.20059 -0.8169,0.40822 -0.92605,0.4614 -0.10914,0.0532 -0.19843,-0.32996 -0.19843,-0.85141 v -0.94809 h -0.33801 c -0.1859,0 -0.60262,0.18535 -0.92604,0.41188 l -0.58804,0.41188 v -1.20991 -1.20991 l 0.92605,-0.4416 0.92604,-0.4416 v -1.3621 c 0,-0.74916 -0.0759,-1.43797 -0.16857,-1.53068 -0.0927,-0.0927 -0.47967,0.0505 -0.8599,0.31823 -0.38023,0.26773 -1.19734,0.74289 -1.8158,1.05589 l -1.12448,0.56909 v 2.75117 2.75117 l -0.89113,0.55075 c -0.49012,0.30291 -0.96637,0.55074 -1.05833,0.55074 -0.092,0 -0.16721,-1.19418 -0.16721,-2.65373 V 114.815 l -1.05629,0.60322 -1.0563,0.60321 -0.002,2.71587 -0.002,2.71587 -0.8599,0.52363 -0.85989,0.52363 -0.0754,-2.64419 c -0.0415,-1.4543 -0.1236,-2.64418 -0.18251,-2.64418 -0.0589,0 -1.09647,0.59473 -2.30568,1.32162 l -2.19858,1.32162 -0.46118,-0.59402 c -0.25365,-0.32671 -0.43232,-0.75712 -0.39704,-0.95647 0.0353,-0.19934 0.95137,-0.86675 2.03577,-1.48312 1.0844,-0.61637 2.00682,-1.22717 2.04983,-1.35734 0.043,-0.13017 -0.8737,-0.77245 -2.03714,-1.42729 -1.16344,-0.65485 -2.11563,-1.25285 -2.11598,-1.3289 -3.5e-4,-0.076 0.40775,-0.3582 0.90688,-0.62699 l 0.9075,-0.48873 2.30801,1.33931 2.30801,1.3393 1.01782,-0.51925 c 0.5598,-0.28559 1.01782,-0.57477 1.01782,-0.64263 0,-0.0679 -0.9525,-0.67682 -2.11667,-1.35325 -1.16417,-0.67643 -2.11667,-1.31411 -2.11667,-1.41708 0,-0.10296 0.38695,-0.39554 0.8599,-0.65017 l 0.85989,-0.46296 2.30167,1.35482 2.30167,1.35481 2.00807,-1.12308 2.00807,-1.12308 -0.60557,-0.46274 c -0.33307,-0.25451 -0.94625,-0.60586 -1.36264,-0.78078 l -0.75706,-0.31804 -0.90381,0.48673 -0.90381,0.48674 -0.91882,-0.43816 c -1.12638,-0.53713 -1.15431,-0.81413 -0.12506,-1.24046 0.43656,-0.18083 0.793,-0.40363 0.79208,-0.49512 -9.2e-4,-0.0915 -0.38787,-0.38643 -0.8599,-0.65543 l -0.85822,-0.48909 1.0258,-0.52666 1.0258,-0.52666 0.89759,0.48339 0.8976,0.48339 1.18546,-0.62888 c 0.652,-0.34589 1.18546,-0.72116 1.18546,-0.83393 0,-0.24501 -3.26299,-2.10267 -3.69334,-2.10267 -0.16504,0 -1.2593,0.55328 -2.43171,1.22952 l -2.13164,1.22953 -1.07396,-0.52015 -1.07397,-0.52015 2.22575,-1.27452 c 1.22416,-0.70099 2.27658,-1.3191 2.33872,-1.37357 0.17835,-0.15636 -0.84486,-0.86663 -1.51048,-1.048528 l -0.60376,-0.16499 -2.13845,1.242518 -2.13845,1.24253 -0.56509,-0.1419 c -0.31079,-0.078 -0.79497,-0.31004 -1.07595,-0.51555 l -0.51087,-0.37366 2.17654,-1.255418 c 1.19709,-0.69049 2.14136,-1.36041 2.09836,-1.48872 -0.043,-0.12831 -0.96358,-0.73985 -2.04576,-1.35897 -1.08219,-0.61913 -2.0021,-1.24475 -2.04426,-1.39027 -0.0422,-0.14552 0.13941,-0.54574 0.40348,-0.88937 l 0.48013,-0.62479 2.15026,1.2201 c 1.18264,0.67106 2.21392,1.22011 2.29173,1.22011 0.0778,0 0.14147,-1.18661 0.14147,-2.63692 v -2.63691 l 0.92604,0.54638 0.92604,0.54638 v 2.72586 2.72585 l 0.94117,0.5553 c 0.51764,0.30542 1.02365,0.55557 1.12448,0.5559 0.10082,3.2e-4 0.14537,-1.13077 0.099,-2.51354 l -0.0843,-2.51414 h 0.30806 c 0.16943,0 0.65006,0.20203 1.06806,0.44895 l 0.76001,0.44894 0.0746,2.77972 0.0746,2.779718 1.71979,0.9903 c 0.94589,0.54467 1.80909,0.99677 1.91823,1.00467 0.10914,0.008 0.19844,-0.67293 0.19844,-1.51296 v -1.527338 l -0.92604,-0.4987 -0.92605,-0.49871 v -1.01667 c 0,-1.15304 0.0127,-1.16051 1.05631,-0.62084 l 0.76545,0.39583 0.0813,-1.07753 0.0813,-1.07752 0.92605,0.62425 0.92604,0.62426 0.13229,1.1204 0.13229,1.12041 0.86629,0.52453 c 0.47646,0.2885 1.042,0.52454 1.25677,0.52454 h 0.39048 v -2.09725 -2.09725 l -1.52136,-0.84857 c -0.83674,-0.46672 -1.90749,-1.10054 -2.37943,-1.40848 l -0.85809,-0.55991 -0.002,-0.99218 c -0.001,-0.54571 0.0758,-0.99219 0.17063,-0.99219 0.0948,0 1.10132,0.53578 2.23663,1.19062 1.1353,0.65485 2.12927,1.19063 2.20881,1.19063 0.29609,0 0.13212,-2.10698 -0.18611,-2.39146 -0.1819,-0.16262 -1.25346,-0.82621 -2.38125,-1.47465 l -2.05052,-1.17899 v -1.04933 c 0,-0.57713 0.0561,-1.04932 0.12467,-1.04932 0.0686,0 1.03091,0.53578 2.13853,1.19062 1.10762,0.65485 2.12308,1.19063 2.25658,1.19063 0.13349,0 0.24272,-1.19063 0.24272,-2.64583 v -2.64584 h 0.92604 0.92604 v 2.64584 c 0,1.4552 0.0893,2.64448 0.19844,2.64284 0.10914,-0.002 1.09141,-0.53608 2.18281,-1.18764 1.09141,-0.65156 2.07367,-1.18599 2.18281,-1.18764 0.10915,-0.002 0.19844,0.46494 0.19844,1.03685 v 1.03984 l -2.38125,1.3743 -2.38125,1.3743 v 1.15774 c 0,0.63676 0.0651,1.15774 0.14462,1.15774 0.0795,0 1.07351,-0.53578 2.20881,-1.19063 1.13531,-0.65484 2.14179,-1.19062 2.23663,-1.19062 0.0948,0 0.17244,0.45606 0.17244,1.01347 v 1.01348 l -1.77127,1.03705 c -0.97421,0.57037 -2.016,1.15927 -2.31511,1.30866 l -0.54383,0.27162 -0.0764,2.30807 c -0.0421,1.26943 0.007,2.30807 0.10904,2.30807 0.41961,0 2.48305,-1.36917 2.50898,-1.6648 0.0154,-0.17577 0.008,-0.63351 -0.0168,-1.01721 l -0.0448,-0.69762 0.78525,-0.55915 c 1.09118,-0.77699 1.36501,-0.70338 1.36501,0.3669 0,1.01953 0.17348,1.11857 0.94162,0.53758 0.78134,-0.59098 0.91047,-0.4971 0.91047,0.66197 v 1.06725 l -0.92605,0.54638 -0.92604,0.54638 v 1.429068 c 0,0.786 0.0685,1.42908 0.15218,1.42908 0.0837,0 0.97667,-0.48982 1.98438,-1.08849 l 1.83219,-1.08849 v -2.741168 -2.74118 l 0.78061,-0.40367 c 0.42934,-0.22202 0.84606,-0.40367 0.92604,-0.40367 0.08,0 0.14544,1.1311 0.14544,2.51354 0,1.38245 0.0555,2.51355 0.12331,2.51355 0.0678,0 0.54407,-0.20065 1.05833,-0.44588 l 0.93502,-0.44588 0.002,-2.79527 0.002,-2.79527 0.81352,-0.46302 c 0.44743,-0.25466 0.92293,-0.46302 1.05666,-0.46302 0.13373,0 0.24314,1.1311 0.24314,2.51354 0,1.38245 0.0788,2.51355 0.17518,2.51355 0.0964,0 1.11994,-0.55388 2.27464,-1.23083 l 2.09946,-1.23083 0.24776,0.37093 c 0.13627,0.20401 0.36484,0.57521 0.50794,0.82488 l 0.26018,0.45395 -2.04945,1.1997 c -1.12719,0.65983 -2.14122,1.1997 -2.25341,1.1997 -0.64465,0 0.0635,0.57831 2.08997,1.70669 l 2.29393,1.277338 -0.50799,0.37155 c -0.2794,0.20436 -0.77289,0.43808 -1.09664,0.51937 l -0.58864,0.14781 -2.11101,-1.21763 c -1.16106,-0.6697 -2.22882,-1.217628 -2.3728,-1.217628 -0.14399,0 -0.69105,0.253268 -1.21571,0.562818 l -0.95392,0.56283 2.13923,1.22311 c 1.17658,0.67271 2.12518,1.34217 2.108,1.48769 -0.0172,0.14552 -0.34933,0.46599 -0.73812,0.71216 l -0.70688,0.44756 -2.36071,-1.3554 -2.36071,-1.3554 -1.93807,1.03788 c -1.06593,0.57084 -1.93806,1.11688 -1.93806,1.21342 0,0.0966 0.55936,0.50335 1.24303,0.90401 l 1.24304,0.72847 0.99149,-0.57063 0.99148,-0.57063 0.96839,0.57136 0.96838,0.57136 -0.99783,0.60222 -0.99782,0.60221 0.97958,0.46713 0.97958,0.46713 -0.97898,0.59084 -0.97898,0.59084 -0.94891,-0.53826 -0.94891,-0.53825 -1.28905,0.72821 -1.28905,0.72822 0.56182,0.42236 c 0.309,0.2323 1.19427,0.75274 1.96726,1.15654 l 1.40544,0.73418 2.3009,-1.324 2.3009,-1.324 0.92349,0.44039 c 0.50792,0.24221 0.9235,0.51978 0.9235,0.61683 0,0.097 -0.94901,0.70007 -2.10892,1.34006 -1.1599,0.63998 -2.1124,1.2432 -2.11666,1.34047 -0.004,0.0973 0.40123,0.42962 0.9011,0.73856 l 0.90885,0.5617 2.38563,-1.3564 2.38563,-1.35639 0.80656,0.47644 c 0.4436,0.26205 0.80656,0.55942 0.80656,0.66083 0,0.10141 -0.9525,0.73378 -2.11667,1.40527 -1.16417,0.67149 -2.11667,1.27415 -2.11667,1.33923 0,0.0651 0.86321,0.59691 1.91823,1.18182 1.05503,0.58491 2.07935,1.16816 2.27628,1.29611 l 0.35804,0.23263 -0.28304,0.49667 c -0.15567,0.27317 -0.38862,0.65402 -0.51766,0.84634 l -0.23462,0.34967 -2.22163,-1.31527 -2.22164,-1.31527 -0.0754,2.61925 c -0.0415,1.44058 -0.14648,2.61924 -0.23335,2.61924 -0.0869,0 -0.55896,-0.24783 -1.04908,-0.55074 l -0.89113,-0.55075 v -2.70783 -2.70782 l -1.05833,-0.59482 -1.05833,-0.59481 v 2.65848 2.65848 l -0.92605,-0.4416 -0.92604,-0.4416 v -2.69672 -2.69672 l -0.33073,-0.27419 c -0.71573,-0.59337 -3.60876,-2.11292 -3.75132,-1.97037 -0.0832,0.0832 -0.15128,0.77462 -0.15128,1.53646 v 1.38517 l 0.99219,0.5132 0.99218,0.51319 0.0814,1.10024 c 0.0874,1.18259 -0.0855,1.3208 -0.89068,0.71179 -0.28248,-0.21365 -0.67545,-0.39225 -0.87327,-0.39687 l -0.35968,-0.008 0.10812,0.92604 c 0.12595,1.07892 0.0925,1.09175 -1.04241,0.39978 l -0.85989,-0.52429 v -1.03708 -1.03708 l -1.1716,-0.6866 c -0.64437,-0.37763 -1.23969,-0.6866 -1.32291,-0.6866 -0.0832,0 -0.15133,0.98446 -0.15133,2.1877 v 2.18769 l 2.37275,1.31804 2.37275,1.31803 0.008,1.12448 c 0.005,0.61846 -0.0458,1.12448 -0.11215,1.12448 -0.11706,0 -2.03192,-1.0957 -3.78195,-2.16405 l -0.8599,-0.52495 0.005,1.27835 0.005,1.27835 2.37108,1.32292 2.37108,1.32292 0.005,1.13563 0.005,1.13563 -1.19062,-0.67261 c -0.65485,-0.36994 -1.72235,-0.97291 -2.37224,-1.33994 l -1.18162,-0.66733 -0.0752,2.71785 -0.0752,2.71785 z m 3.66475,-19.27253 v -1.54545 l -1.32292,-0.72003 -1.32292,-0.72002 v 1.58419 1.58419 l 1.12448,0.65482 c 0.61846,0.36015 1.21378,0.66672 1.32292,0.68128 0.10914,0.0146 0.19844,-0.66899 0.19844,-1.51898 z m -5.66951,0.59426 1.17159,-0.6866 v -1.43006 c 0,-0.78654 -0.0595,-1.43007 -0.13215,-1.43007 -0.0727,0 -0.72582,0.32742 -1.4514,0.7276 l -1.31924,0.72761 -0.004,1.38906 c -0.002,0.81416 0.11357,1.38906 0.2798,1.38906 0.15599,0 0.81083,-0.30897 1.45521,-0.6866 z m -1.32292,-4.49791 c 0.64438,-0.37763 1.17159,-0.774 1.17159,-0.88082 0,-0.10682 -0.60203,-0.47619 -1.33785,-0.82083 l -1.33785,-0.62661 -0.71267,0.4654 c -0.39197,0.25598 -0.92103,0.53149 -1.17569,0.61225 -0.25466,0.0808 -0.46131,0.22225 -0.45921,0.31442 0.003,0.13537 2.28535,1.54855 2.59491,1.60677 0.0469,0.009 0.61239,-0.29295 1.25677,-0.67058 z m 9.50357,-0.052 1.18667,-0.7386 -1.40083,-0.75776 -1.40083,-0.75777 -1.25378,0.73476 c -0.68958,0.40412 -1.21863,0.76986 -1.17568,0.81275 0.2026,0.20232 2.48299,1.43923 2.65857,1.44204 0.10957,0.002 0.73321,-0.32919 1.38588,-0.73542 z m -7.00906,-4.11664 v -1.41566 l -1.32292,-0.82237 -1.32291,-0.82237 7.1e-4,1.64272 7.2e-4,1.64272 0.99147,0.56661 c 0.54531,0.31164 1.1403,0.57954 1.3222,0.59532 l 0.33073,0.0287 z m 3.41962,0.7668 1.02786,-0.64885 0.0914,-1.46817 c 0.0502,-0.8075 0.0171,-1.46801 -0.0738,-1.46781 -0.0908,2e-4 -0.71589,0.30819 -1.38906,0.68444 l -1.22395,0.68408 v 1.43258 c 0,0.79728 0.11967,1.43259 0.26984,1.43259 0.14842,0 0.73238,-0.29198 1.2977,-0.64886 z"
       id="path3" /></g></svg>
