<?xml version="1.0" encoding="UTF-8" standalone="no"?>
<!-- Created with Inkscape (http://www.inkscape.org/) -->

<svg
   width="48.152912mm"
   height="48.224174mm"
   viewBox="0 0 48.152912 48.224174"
   version="1.1"
   id="svg1"
   xml:space="preserve"
   xmlns:inkscape="http://www.inkscape.org/namespaces/inkscape"
   xmlns:sodipodi="http://sodipodi.sourceforge.net/DTD/sodipodi-0.dtd"
   xmlns="http://www.w3.org/2000/svg"
   xmlns:svg="http://www.w3.org/2000/svg"><sodipodi:namedview
     id="namedview1"
     pagecolor="#ffffff"
     bordercolor="#000000"
     borderopacity="0.25"
     inkscape:showpageshadow="2"
     inkscape:pageopacity="0.0"
     inkscape:pagecheckerboard="0"
     inkscape:deskcolor="#d1d1d1"
     inkscape:document-units="mm" /><defs
     id="defs1" /><g
     inkscape:label="Layer 1"
     inkscape:groupmode="layer"
     id="layer1"
     transform="translate(-76.023065,-145.14491)"><path
       style="fill:#000000"
       d="m 98.070782,192.95353 -0.159458,-0.41554 0.961512,-0.98468 0.961512,-0.98467 v -1.90708 c 0,-1.04889 -0.09274,-1.90707 -0.206081,-1.90707 -0.113344,0 -0.973108,0.77391 -1.910586,1.71979 -0.937477,0.94589 -1.916304,1.71979 -2.175169,1.71979 h -0.470664 v -0.50996 c 0,-0.28048 0.317393,-0.75962 0.705318,-1.06477 0.387925,-0.30514 1.459488,-1.26418 2.38125,-2.13119 l 1.675932,-1.57639 v -1.3276 c 0,-0.73017 -0.08428,-1.32759 -0.187282,-1.32759 -0.103005,0 -0.639469,0.44155 -1.192143,0.98122 l -1.004861,0.98122 -0.409266,-0.40926 -0.409267,-0.40927 1.60141,-1.54902 1.601409,-1.54901 v -4.71148 c 0,-2.59131 -0.08992,-4.71148 -0.199815,-4.71148 -0.109899,0 -1.734937,1.54091 -3.611196,3.42424 l -3.41138,3.42423 0.179423,2.15144 0.179423,2.15144 -0.603123,-0.0856 -0.603124,-0.0856 -0.132291,-1.53696 -0.132292,-1.53696 -1.033654,1.06141 -1.033653,1.06142 0.168774,3.33003 0.168775,3.33003 -0.418595,0.16063 c -0.681122,0.26137 -0.886016,-0.43487 -0.890304,-3.02533 -0.0022,-1.34607 -0.09782,-2.4474 -0.212435,-2.4474 -0.114611,0 -0.769455,0.56964 -1.455209,1.26586 l -1.246824,1.26586 v 1.51227 1.51226 h -0.50086 c -0.56803,0 -0.822057,-0.49254 -0.822057,-1.59392 v -0.7569 l -1.124479,-0.0814 -1.124479,-0.0814 -0.08455,-0.59531 -0.08455,-0.59531 h 1.416503 1.416502 l 1.427474,-1.44543 1.427474,-1.44543 -2.759429,-0.0759 -2.759428,-0.0759 v -0.52917 -0.52916 h 3.356718 3.356719 l 0.94276,-0.9118 c 0.518519,-0.50149 0.942761,-1.00751 0.942761,-1.12448 0,-0.11698 -0.723105,-0.21268 -1.6069,-0.21268 H 87.36013 l 0.08852,-0.46302 0.08852,-0.46302 2.259461,-0.0757 2.259461,-0.0757 3.289841,-3.29776 3.289841,-3.29776 H 93.79162 88.947457 l -1.329979,1.45521 c -0.731488,0.80036 -1.496625,1.45521 -1.700304,1.45521 -0.670355,0 -0.387032,-0.88663 0.609412,-1.90708 l 0.979738,-1.00334 h -1.552556 -1.552557 l -2.284172,2.42988 -2.284173,2.42989 -0.318009,-0.19654 c -0.546952,-0.33804 -0.351786,-0.78413 0.942023,-2.15319 0.68943,-0.72953 1.480322,-1.59273 1.757537,-1.91823 l 0.504028,-0.59181 h -2.003886 -2.003887 l -0.873466,0.92604 c -0.480406,0.50933 -1.013122,0.92604 -1.183813,0.92604 -0.626141,0 -0.548039,-0.69201 0.175983,-1.55927 l 0.743106,-0.89012 -0.774093,-0.82582 c -0.425751,-0.45421 -0.774644,-0.97466 -0.775317,-1.15656 -0.0022,-0.58342 0.875296,-0.35415 1.705971,0.44574 l 0.806346,0.77647 1.852084,0.0374 c 1.018645,0.0205 1.968166,0.0283 2.110044,0.0173 0.141879,-0.011 -0.628413,-0.91241 -1.71176,-2.00303 l -1.969723,-1.98296 0.407651,-0.40765 0.40765,-0.40765 2.326685,2.36788 2.326684,2.36788 1.447443,0.0889 c 0.796093,0.0489 1.499477,0.0366 1.563074,-0.0273 0.0636,-0.0639 -0.377192,-0.61835 -0.97953,-1.23209 -1.019698,-1.039 -1.179629,-1.69441 -0.413461,-1.69441 0.178284,0 0.970862,0.65484 1.761284,1.45521 l 1.437132,1.4552 h 4.837685 c 2.660726,0 4.837684,-0.0672 4.837684,-0.14937 0,-0.0822 -1.56138,-1.67731 -3.469734,-3.54479 l -3.469733,-3.39541 -2.110085,0.14462 -2.110085,0.14463 0.08971,-0.63473 0.08971,-0.63474 1.385359,-0.13229 1.385359,-0.13229 -0.953785,-1.00786 -0.953786,-1.00786 -3.408136,0.18527 -3.408136,0.18527 v -0.53817 c 0,-0.7381 0.459131,-0.85936 3.253747,-0.85936 h 2.416718 l -1.437132,-1.45521 -1.437132,-1.45521 h -1.3981 -1.398101 v -0.52916 -0.52917 h 1.176128 1.176128 l 0.08064,-1.25677 0.08064,-1.25677 h 0.529166 0.529167 l 0.04335,0.92604 c 0.02384,0.50932 0.05361,1.12234 0.06615,1.36226 0.02042,0.39084 2.471082,3.13566 2.79961,3.13566 0.07348,0 0.133599,-1.25016 0.133599,-2.77813 v -2.77812 h 0.529167 0.529167 v 3.48234 3.48234 l 0.980825,0.8726 c 0.539454,0.47993 1.013924,0.8395 1.054379,0.79904 0.04045,-0.0404 0.09441,-0.62504 0.119909,-1.29907 0.05515,-1.45818 0.287417,-1.91563 0.860892,-1.69557 l 0.423578,0.16254 v 2.22441 2.22441 l 3.373438,3.36166 3.373437,3.36166 0.07251,-4.71486 0.07251,-4.71486 -1.595557,-1.56136 -1.595558,-1.56135 0.294062,-0.35432 0.294061,-0.35433 0.435238,0.23473 c 0.239381,0.1291 0.723883,0.54332 1.076671,0.92048 0.352789,0.37717 0.739742,0.68576 0.859896,0.68576 0.120155,0 0.218463,-0.59742 0.218463,-1.32759 v -1.32759 l -1.675932,-1.5764 c -0.921762,-0.86701 -1.993325,-1.82605 -2.38125,-2.13119 -0.387925,-0.30514 -0.705318,-0.78429 -0.705318,-1.06477 v -0.50996 h 0.470664 c 0.258865,0 1.237692,0.7739 2.175169,1.71979 0.937478,0.94588 1.797242,1.71979 1.910586,1.71979 0.113345,0 0.206081,-0.85818 0.206081,-1.90707 v -1.90707 l -0.961512,-0.98467 -0.961512,-0.98468 0.159458,-0.41554 c 0.228971,-0.59669 0.506569,-0.51957 1.36864,0.38024 l 0.762407,0.79579 0.85715,-0.83079 0.85716,-0.83078 0.41431,0.15899 c 0.62065,0.23816 0.51021,0.60186 -0.51173,1.68531 l -0.92604,0.98178 v 1.98295 1.98294 l 1.09721,-1.04588 c 0.60346,-0.57524 1.48807,-1.44878 1.9658,-1.94121 l 0.8686,-0.89533 0.41545,0.15942 c 0.79127,0.30364 0.40449,0.9257 -1.96581,3.16161 l -2.38125,2.24624 v 1.54022 1.54022 l 1.17101,-1.14926 1.17101,-1.14926 0.41649,0.15983 c 0.68703,0.26364 0.49243,0.63348 -1.17101,2.22553 l -1.5875,1.51937 v 4.56576 c 0,2.51117 0.0875,4.56577 0.19447,4.56577 0.10695,0 1.59523,-1.39713 3.30729,-3.10472 l 3.11283,-3.10472 v -2.31924 -2.31924 h 0.52916 0.52917 v 1.5875 c 0,0.87313 0.10521,1.5875 0.23379,1.5875 0.12859,0 0.65109,-0.46189 1.16112,-1.02643 l 0.92732,-1.02643 -0.10875,-3.00847 c -0.11162,-3.08815 0.063,-3.86825 0.80252,-3.58449 l 0.42358,0.16255 v 2.71124 2.71125 l 1.44294,-1.42502 1.44295,-1.42502 0.0784,-1.34407 0.0784,-1.34407 h 0.52916 0.52917 l 0.13229,1.19063 0.13229,1.19062 0.46302,0.022 c 0.25466,0.0121 0.76068,0.0419 1.12448,0.0662 l 0.66146,0.0441 v 0.52917 0.52917 h -1.49705 -1.49705 l -1.28069,1.25677 c -0.70437,0.69122 -1.28086,1.3419 -1.28107,1.44595 -2.1e-4,0.10405 1.22,0.22311 2.71159,0.26458 l 2.71198,0.0754 v 0.52916 0.52917 l -3.39833,-0.0939 -3.39832,-0.0939 -0.90116,0.87343 c -0.49563,0.48039 -0.90115,0.96292 -0.90115,1.07229 0,0.10937 0.62508,0.23484 1.38906,0.27882 l 1.38907,0.08 v 0.52916 0.52917 l -2.11667,-0.0823 -2.11667,-0.0822 -3.43576,3.45568 -3.43577,3.45568 h 4.76772 4.76772 l 1.43713,-1.4552 c 1.38901,-1.40648 2.38125,-1.85644 2.38125,-1.07983 0,0.20646 -0.41671,0.76844 -0.92604,1.24884 -0.50932,0.48041 -0.92604,0.96633 -0.92604,1.07983 0,0.1135 0.62756,0.20636 1.39458,0.20636 h 1.39458 l 2.34748,-2.3584 c 2.13795,-2.1479 3.06544,-2.68849 3.06544,-1.7867 0,0.16291 -0.86022,1.1622 -1.9116,2.22065 l -1.91161,1.92445 h 2.12669 2.12669 l 0.76046,-0.79375 c 0.75981,-0.79307 1.71979,-1.06546 1.71979,-0.48799 0,0.16816 -0.3109,0.71337 -0.6909,1.21157 l -0.69089,0.90581 0.72526,0.75701 c 0.43703,0.45616 0.66233,0.92102 0.56691,1.16968 -0.23296,0.6071 -0.50087,0.51529 -1.49788,-0.51337 l -0.89754,-0.9261 h -2.0984 -2.0984 l 1.91295,2.01384 1.91295,2.01384 -0.42729,0.4273 -0.4273,0.42729 -2.27198,-2.44113 -2.27199,-2.44114 h -1.48269 -1.48269 l 1.01521,1.03967 1.01521,1.03967 -0.15946,0.41554 c -0.2651,0.69083 -0.68278,0.48275 -2.06352,-1.028 l -1.31931,-1.44354 -4.61465,-0.0778 c -2.53806,-0.0428 -4.61451,-0.0201 -4.61433,0.0505 1.8e-4,0.0706 1.39745,1.52909 3.10505,3.24114 l 3.10471,3.11283 h 2.31924 2.31924 v 0.52917 0.52916 h -1.5875 c -0.87312,0 -1.5875,0.0949 -1.5875,0.21089 0,0.11599 0.46123,0.66126 1.02494,1.21171 l 1.02494,1.00082 3.00996,-0.045 c 3.86316,-0.0578 3.72519,-0.0756 3.62185,0.46589 l -0.0884,0.46303 -2.77531,0.13229 -2.7753,0.13229 1.41452,1.32292 1.41452,1.32291 1.36361,0.13229 1.3636,0.1323 v 0.52916 0.52917 l -1.25677,0.0806 -1.25677,0.0806 v 1.17613 1.17613 h -0.52917 -0.52917 v -1.41929 -1.4193 l -1.38906,-1.413 -1.38906,-1.41301 -0.13229,2.67921 c -0.0728,1.47356 -0.21646,2.7628 -0.31932,2.86498 -0.10287,0.10218 -0.3827,0.1107 -0.62185,0.0189 l -0.43482,-0.16686 0.1881,-3.26113 0.18809,-3.26114 -1.02145,-0.96662 -1.02146,-0.96661 -0.13229,1.38536 -0.13229,1.38536 h -0.52917 -0.52917 v -2.11667 -2.11667 l -3.19522,-3.24108 c -1.75737,-1.78263 -3.27542,-3.24115 -3.37344,-3.24115 -0.098,0 -0.17821,2.11899 -0.17821,4.70886 v 4.70885 l 1.5875,1.49821 c 1.65742,1.5642 1.86507,1.95876 1.17101,2.22509 l -0.41649,0.15983 -1.17101,-1.14926 -1.17101,-1.14926 v 1.43918 1.43918 l 2.41863,2.42873 2.41863,2.42873 -0.16137,0.42051 c -0.0887,0.23129 -0.27839,0.42052 -0.42143,0.42052 -0.14303,0 -1.09681,-0.83344 -2.11951,-1.85209 -1.02269,-1.01864 -1.92143,-1.85208 -1.9972,-1.85208 -0.0758,0 -0.13775,0.89694 -0.13775,1.99319 v 1.9932 l 0.94405,0.94405 c 0.91198,0.91198 1.05154,1.68414 0.30438,1.68414 -0.19562,0 -0.69876,-0.3581 -1.11809,-0.79578 l -0.76241,-0.79579 -0.821038,0.79579 c -0.935052,0.90629 -1.144591,0.9645 -1.36879,0.38024 z"
       id="path5" /></g></svg>
