<?xml version="1.0" encoding="UTF-8" standalone="no"?>
<!-- Created with Inkscape (http://www.inkscape.org/) -->

<svg
   width="48.393475mm"
   height="48.284393mm"
   viewBox="0 0 48.393475 48.284393"
   version="1.1"
   id="svg1"
   xml:space="preserve"
   xmlns:inkscape="http://www.inkscape.org/namespaces/inkscape"
   xmlns:sodipodi="http://sodipodi.sourceforge.net/DTD/sodipodi-0.dtd"
   xmlns="http://www.w3.org/2000/svg"
   xmlns:svg="http://www.w3.org/2000/svg"><sodipodi:namedview
     id="namedview1"
     pagecolor="#ffffff"
     bordercolor="#000000"
     borderopacity="0.25"
     inkscape:showpageshadow="2"
     inkscape:pageopacity="0.0"
     inkscape:pagecheckerboard="0"
     inkscape:deskcolor="#d1d1d1"
     inkscape:document-units="mm" /><defs
     id="defs1" /><g
     inkscape:label="Layer 1"
     inkscape:groupmode="layer"
     id="layer1"
     transform="translate(-138.04508,-139.54789)"><path
       style="fill:#000000"
       d="m 161.5048,187.656 c -0.097,-0.097 -0.17639,-0.57326 -0.17639,-1.05833 v -0.88195 l -0.33073,0.009 c -0.1819,0.005 -0.62838,0.17953 -0.99219,0.3875 -0.3638,0.20797 -0.92935,0.38234 -1.25677,0.3875 l -0.59531,0.009 v -0.53305 c 0,-0.5897 1.28121,-1.51066 2.4474,-1.75925 l 0.7276,-0.15509 v -4.20026 c 0,-2.31015 -0.0622,-4.20026 -0.13816,-4.20026 -0.076,0 -1.08538,0.47625 -2.24309,1.05833 -1.15771,0.58208 -2.20423,1.05833 -2.32561,1.05833 -0.12137,0 -0.56313,-1.07156 -0.98168,-2.38125 -0.41855,-1.30968 -0.82993,-2.38125 -0.91418,-2.38125 -0.0842,0 -1.44729,1.29813 -3.02897,2.88474 l -2.87579,2.88474 0.58377,1.20592 c 0.32108,0.66326 0.54565,1.53801 0.49906,1.94391 l -0.0847,0.73798 h -0.52164 -0.52163 l -0.4355,-1.17893 c -0.51267,-1.38788 -0.77129,-1.53513 -1.42582,-0.81188 -0.54661,0.604 -1.20143,0.68938 -1.67271,0.21811 -0.49253,-0.49254 -0.37979,-1.04373 0.37452,-1.83106 l 0.69201,-0.72231 -1.15503,-0.32763 c -1.41398,-0.40108 -1.94476,-0.84813 -1.7157,-1.44505 l 0.17316,-0.45125 0.90784,0.14732 c 0.49931,0.081 1.34027,0.35252 1.86879,0.60332 l 0.96096,0.45601 2.88902,-2.88006 c 1.58896,-1.58403 2.88902,-2.95016 2.88902,-3.03585 0,-0.0857 -1.07157,-0.47655 -2.38125,-0.8686 -1.30969,-0.39204 -2.38125,-0.84405 -2.38125,-1.00445 0,-0.16041 0.47625,-1.18502 1.05833,-2.27693 0.58208,-1.0919 1.05833,-2.08987 1.05833,-2.2177 0,-0.12784 -1.84215,-0.23243 -4.09368,-0.23243 h -4.09371 l -0.56099,1.30405 c -0.30854,0.71723 -0.79181,1.51294 -1.07392,1.76825 l -0.51294,0.4642 -0.3771,-0.37919 -0.37711,-0.37919 0.51764,-1.15337 c 0.66194,-1.47491 0.65989,-1.48744 -0.24771,-1.51916 -1.1261,-0.0394 -1.61591,-0.29341 -1.61591,-0.83812 0,-0.72489 0.53163,-1.11955 1.50812,-1.11955 h 0.87313 v -0.33465 c 0,-0.18406 -0.24565,-0.79297 -0.54588,-1.35314 -0.56698,-1.05786 -0.52749,-1.7518 0.0997,-1.7518 0.53214,0 1.3104,0.95353 1.80312,2.2092 l 0.43089,1.09809 4.13317,0.0729 c 2.3681,0.0418 4.13317,-0.0302 4.13317,-0.16857 0,-0.13279 -0.53392,-1.2451 -1.18649,-2.47181 l -1.18649,-2.23038 2.39599,-0.76571 c 1.31779,-0.42114 2.44077,-0.83816 2.4955,-0.92672 0.0547,-0.0886 -1.19428,-1.45079 -2.77557,-3.02718 l -2.87508,-2.86617 -1.5554,0.58168 c -1.5471,0.57858 -2.45621,0.54151 -2.45621,-0.10017 0,-0.46001 0.47994,-0.80269 1.65365,-1.18075 0.5457,-0.17577 0.99219,-0.39313 0.99219,-0.48302 0,-0.0899 -0.30833,-0.48527 -0.68518,-0.87861 l -0.68517,-0.71516 0.29761,-0.55609 c 0.39998,-0.74736 1.02561,-0.70023 1.9064,0.14362 l 0.73033,0.6997 0.25221,-0.63355 c 0.13872,-0.34846 0.39908,-1.02657 0.5786,-1.50692 l 0.32638,-0.87336 0.55764,0.0796 0.55764,0.0796 -0.0392,0.86123 c -0.0215,0.47368 -0.27308,1.33404 -0.55899,1.91191 l -0.51983,1.05067 2.88419,2.8506 c 2.93974,2.90549 3.39316,3.26796 3.39316,2.71247 0,-0.17299 0.30422,-1.3119 0.67604,-2.53092 l 0.67605,-2.21641 2.36666,1.18861 2.36667,1.18861 v -4.20004 -4.20005 l -1.15823,-0.44232 c -1.34835,-0.51495 -2.14687,-1.29015 -1.92487,-1.86867 0.20823,-0.54265 0.6475,-0.5127 1.90267,0.12973 l 1.04813,0.53647 0.1323,-0.97247 c 0.0728,-0.53486 0.34065,-1.10308 0.59531,-1.26272 l 0.46302,-0.29024 0.46302,0.29002 c 0.26986,0.16904 0.49728,0.69276 0.54514,1.25542 0.0452,0.53097 0.13128,0.96539 0.19136,0.96539 0.0601,0 0.63557,-0.25571 1.27887,-0.56824 2.02577,-0.9842 2.85123,0.0366 0.98318,1.21582 -0.57,0.35982 -1.3439,0.73141 -1.7198,0.82576 l -0.68344,0.17153 v 4.20465 c 0,2.31256 0.0523,4.20465 0.11628,4.20465 0.064,0 1.14436,-0.54678 2.4009,-1.21508 1.25654,-0.66829 2.31985,-1.1743 2.36292,-1.12447 0.0431,0.0498 0.43631,1.16215 0.87388,2.47184 0.43758,1.30969 0.86556,2.3474 0.95109,2.30604 0.0855,-0.0414 1.42514,-1.37718 2.97692,-2.96846 l 2.82142,-2.89324 -0.46238,-0.97439 c -0.25431,-0.53592 -0.47797,-1.34324 -0.49702,-1.79405 l -0.0346,-0.81965 h 0.65298 0.65298 l 0.27306,0.97053 c 0.37471,1.33182 0.5152,1.40867 1.39119,0.76103 0.85275,-0.63047 1.54886,-0.51416 1.80793,0.30209 l 0.16807,0.52956 -0.70059,0.73126 -0.70059,0.73126 0.87332,0.32636 c 0.48032,0.17951 1.14968,0.43589 1.48747,0.56974 l 0.61415,0.24337 -0.0873,0.46011 -0.0873,0.46011 -0.76467,0.0875 c -0.43162,0.0494 -1.27188,-0.17335 -1.92922,-0.51143 l -1.16456,-0.59896 -2.89716,2.88818 c -1.59343,1.5885 -2.89715,2.97567 -2.89715,3.08262 0,0.10694 1.04179,0.51004 2.3151,0.89577 1.27331,0.38573 2.40272,0.75273 2.50981,0.81556 0.10708,0.0628 -0.30856,1.09051 -0.92366,2.28374 -0.6151,1.19323 -1.15912,2.25881 -1.20894,2.36795 -0.0498,0.10914 1.82208,0.19843 4.15976,0.19843 h 4.25034 l 0.16832,-0.7276 c 0.25134,-1.08648 1.23257,-2.44353 1.7683,-2.44559 0.73298,-0.003 0.80702,0.64108 0.2086,1.81408 -0.3012,0.5904 -0.54763,1.13772 -0.54763,1.21628 0,0.0786 0.41253,0.14283 0.91673,0.14283 h 0.91673 l 0.27389,0.51178 c 0.35423,0.66187 0.35001,0.69723 -0.14188,1.18912 -0.22867,0.22867 -0.76445,0.41577 -1.19062,0.41577 -0.92049,0 -0.92052,1.4e-4 -0.24569,1.32292 0.29104,0.57049 0.52917,1.22059 0.52917,1.44466 v 0.40742 l -0.59531,-0.008 c -0.68963,-0.01 -1.30417,-0.76629 -1.7661,-2.1745 l -0.32546,-0.99219 h -4.22732 -4.22731 l 1.19846,2.30854 c 0.65914,1.2697 1.11215,2.39021 1.00668,2.49002 -0.10547,0.0998 -1.23356,0.50375 -2.50687,0.89764 -1.27331,0.39389 -2.3151,0.75442 -2.3151,0.80118 0,0.0468 1.33147,1.41509 2.95883,3.04073 l 2.95883,2.95571 1.14929,-0.55837 c 0.63211,-0.3071 1.50329,-0.55837 1.93596,-0.55837 h 0.78667 v 0.63278 0.63277 l -0.64979,0.16309 c -0.35738,0.0897 -0.97003,0.28484 -1.36143,0.43365 l -0.71165,0.27057 0.58948,0.62747 c 0.35409,0.37691 0.55436,0.87553 0.50154,1.24868 l -0.0879,0.6212 -0.62121,0.0879 c -0.37314,0.0528 -0.87177,-0.14745 -1.24867,-0.50153 l -0.62747,-0.58948 -0.27057,0.71164 c -0.14881,0.3914 -0.34179,0.99543 -0.42885,1.34229 -0.16306,0.64971 -0.7683,1.04878 -1.19273,0.78647 -0.42498,-0.26265 -0.25742,-1.814 0.31034,-2.87331 l 0.55105,-1.02814 -2.86277,-2.87167 c -1.57452,-1.57942 -2.96669,-2.83703 -3.0937,-2.7947 -0.12702,0.0423 -0.52688,1.02512 -0.88859,2.18395 -0.36171,1.15882 -0.75027,2.20501 -0.86347,2.32485 -0.1132,0.11985 -1.26267,-0.31247 -2.55438,-0.9607 l -2.34857,-1.17859 0.0234,1.22528 c 0.0129,0.67391 0.0426,2.60939 0.0661,4.30107 l 0.0428,3.07578 0.7276,0.15509 c 1.16618,0.24859 2.4474,1.16955 2.4474,1.75925 v 0.53305 l -0.59532,-0.009 c -0.32742,-0.005 -0.89296,-0.17953 -1.25677,-0.3875 -0.9594,-0.54845 -1.32291,-0.48169 -1.32291,0.24294 0,1.07815 -0.28146,1.47685 -1.04255,1.47685 -0.39674,0 -0.80072,-0.0794 -0.89773,-0.17639 z m -1.83004,-12.6846 1.65365,-0.92324 v -3.64712 c 0,-2.00592 -0.0603,-3.70739 -0.13393,-3.78105 -0.0737,-0.0737 -1.30319,1.05094 -2.73228,2.49912 l -2.59835,2.63306 0.67774,2.22374 0.67774,2.22375 0.40089,-0.15251 c 0.2205,-0.0839 1.14504,-0.56796 2.05454,-1.07575 z m 8.99582,-3.01401 c -0.0364,-0.21828 -1.28992,-1.57902 -2.78566,-3.02386 l -2.71953,-2.62698 0.0737,3.81761 0.0737,3.8176 2.11667,1.10562 2.11667,1.10562 0.5953,-1.89937 c 0.32741,-1.04465 0.56553,-2.07796 0.52916,-2.29624 z m -11.77867,-4.16222 c 1.42143,-1.4161 2.58442,-2.66626 2.58442,-2.77813 0,-0.11187 -1.66555,-0.2034 -3.70122,-0.2034 h -3.70121 l -1.05432,2.09694 -1.05432,2.09694 1.91126,0.6603 c 1.0512,0.36316 2.0282,0.66969 2.17111,0.68118 0.14292,0.0115 1.42284,-1.13774 2.84428,-2.55383 z m 15.75826,1.74458 c 0.97631,-0.31106 1.83107,-0.61506 1.89946,-0.67557 0.0684,-0.0605 -0.34415,-0.99662 -0.91676,-2.08027 l -1.0411,-1.97027 h -3.97307 -3.97307 l 2.6359,2.64583 c 1.44975,1.45521 2.85137,2.64584 3.11472,2.64584 0.26334,0 1.27761,-0.25451 2.25392,-0.56556 z m -14.89525,-6.83813 1.85047,-0.005 -2.67114,-2.67114 -2.67115,-2.67115 -2.15589,0.71509 c -1.18573,0.3933 -2.15588,0.75778 -2.15588,0.80996 0,0.24399 1.98759,3.7098 2.23409,3.89563 0.1537,0.11587 1.05335,0.14773 1.99924,0.0708 0.94589,-0.0769 2.5525,-0.14198 3.57026,-0.14454 z m 15.83174,-2.01997 c 0.54847,-1.10843 0.96153,-2.04839 0.91792,-2.0888 -0.16612,-0.15392 -3.72497,-1.18754 -4.08881,-1.18754 -0.35518,0 -5.38319,4.79934 -5.38319,5.13836 0,0.0843 1.70029,0.1533 3.77844,0.1533 h 3.77843 z m -12.45249,-3.33219 -0.063,-3.76 -1.89325,-1.01791 c -1.04129,-0.55985 -1.98434,-0.92167 -2.09566,-0.80405 -0.11133,0.11761 -0.46186,1.09443 -0.77896,2.1707 l -0.57654,1.95685 2.59743,2.60721 c 1.42858,1.43397 2.65943,2.60721 2.73521,2.60721 0.0758,0 0.10944,-1.692 0.0748,-3.76001 z m 5.04439,1.10631 2.5964,-2.6537 -0.7023,-2.1088 c -0.38626,-1.15984 -0.78181,-2.11014 -0.879,-2.11178 -0.0972,-0.002 -1.0397,0.44484 -2.09447,0.99219 l -1.91777,0.99517 -4.6e-4,3.77031 c -2.6e-4,2.07367 0.0899,3.77031 0.20036,3.77031 0.11046,0 1.36921,-1.19416 2.79724,-2.6537 z"
       id="path4" /></g></svg>
